<svg viewBox="0 0 <%= w %> <%= h %>" xmlns="http://www.w3.org/2000/svg">


    <!--
        Defs
    -->

    <defs>


        <!-- gradients -->

        <linearGradient id="g1" x1="0" y1="0" x2="100%" y2="100%" gradientUnits="userSpaceOnUse">
            <stop stop-color="#FFFFFF" offset="0%"/>
            <stop stop-color="#0A69D2" offset="100%"/>
        </linearGradient>

        <linearGradient id="g2" x1="0" y1="0" x2="100%" y2="100%" gradientUnits="userSpaceOnUse">
            <stop stop-color="#4DA8FF" offset="15%"/>
            <stop stop-color="#FFE600" offset="70%"/>
            <stop stop-color="#FF9900" offset="100%"/>
        </linearGradient>

        <linearGradient id="g3" x1="0" y1="0" x2="100%" y2="100%" gradientUnits="userSpaceOnUse">
            <stop stop-color="#F305BC" offset="5%"/>
            <stop stop-color="#DCE742" offset="35%"/>
            <stop stop-color="#16B9ED" offset="100%"/>
        </linearGradient>

        <linearGradient id="g4" x1="0" y1="0" x2="100%" y2="0" gradientUnits="userSpaceOnUse">
            <stop stop-color="#FFFFFF" stop-opacity="0" offset="20%"/>
            <stop stop-color="#0A69D2" offset="50%"/>
            <stop stop-color="#FFFFFF" stop-opacity="0" offset="80%"/>
        </linearGradient>


        <!-- b1 clip & mask -->

        <mask id="m1">
            <rect x="<%= 404 + x2 %>" y="<%= 404 + y2 %>" width="<%= 600 + x2 %>" height="<%= 600 + y2 %>" fill="#FFF"/>
            <rect x="<%= 499 + x2 %>" y="<%= 499 + y2 %>" width="<%= 410 + x2 %>" height="<%= 410 + y2 %>" fill="#000"/>
        </mask>

        <clipPath id="c1">
            <rect x="<%= 499 + x2 %>" y="<%= 499 + y2 %>" width="<%= 410 + x2 %>" height="<%= 410 + y2 %>"/>
        </clipPath>


        <!-- b2 clip & mask -->

        <mask id="m2">
            <rect x="<%= 254 + x1 %>" y="<%= 254 + y1 %>" width="<%= 900 + x4 %>" height="<%= 900 + y4 %>" fill="#FFF"/>
            <rect x="<%= 339 + x1 %>" y="<%= 339 + y1 %>" width="<%= 730 + x4 %>" height="<%= 730 + y4 %>" fill="#000"/>
        </mask>

        <clipPath id="c2">
            <rect x="<%= 339 + x1 %>" y="<%= 339 + y1 %>" width="<%= 730 + x4 %>" height="<%= 730 + y4 %>"/>
        </clipPath>


        <!-- b3 clip & mask -->

        <mask id="m3">
            <rect x="<%= 124 %>" y="<%= 124 %>" width="<%= 1160 + x6 %>" height="<%= 1160 + y6 %>" fill="#FFF"/>
            <rect x="<%= 199 %>" y="<%= 199 %>" width="<%= 1010 + x6 %>" height="<%= 1010 + y6 %>" fill="#000"/>
        </mask>

        <clipPath id="c3">
            <rect x="<%= 199 %>" y="<%= 199 %>" width="<%= 1010 + x6 %>" height="<%= 1010 + y6 %>"/>
        </clipPath>


    </defs>


    <!--
        Lines
    -->

    <g stroke="url(#g4)">
        <line class="mm-line" stroke-dasharray="12 6" x1="<%= 704 + x3 %>" y1="<%= 704 + y3 %>" x2="<%= 499 + x2 %>"
              y2="<%= 499 + y2 %>"/>
        <line class="mm-line" stroke-dasharray="12 6" x1="<%= 704 + x3 %>" y1="<%= 704 + y3 %>" x2="<%= 499 + x2 %>"
              y2="<%= 909 + y4 %>"/>
        <line class="mm-line" stroke-dasharray="12 6" x1="<%= 704 + x3 %>" y1="<%= 704 + y3 %>" x2="<%= 909 + x4 %>"
              y2="<%= 909 + y4 %>"/>
        <line class="mm-line" stroke-dasharray="12 6" x1="<%= 704 + x3 %>" y1="<%= 704 + y3 %>" x2="<%= 909 + x4 %>"
              y2="<%= 499 + y2 %>"/>
    </g>

    <g>
        <line class="mm-line mm-line--orange" stroke-dasharray="12 6" x1="<%= 499 + x2 %>" y1="<%= 704 + y3 %>"
              x2="<%= 339 + x1 %>" y2="<%= 704 + y3 %>"/>
        <line class="mm-line mm-line--orange" stroke-dasharray="12 6" x1="<%= 704 + x3 %>" y1="<%= 909 + y4 %>"
              x2="<%= 704 + x3 %>" y2="<%= 1069 + y5 %>"/>
        <line class="mm-line mm-line--orange" stroke-dasharray="12 6" x1="<%= 909 + x4 %>" y1="<%= 704 + y3 %>"
              x2="<%= 1069 + x5 %>" y2="<%= 704 + y3 %>"/>
        <line class="mm-line mm-line--orange" stroke-dasharray="12 6" x1="<%= 704 + x3 %>" y1="<%= 499 + y2 %>"
              x2="<%= 704 + x3 %>" y2="<%= 339 + y1 %>"/>
    </g>

    <g>
        <line class="mm-line mm-line--orange" stroke-dasharray="12 6" x1="<%= 339 + x1 %>" y1="<%= 339 + y1 %>"
              x2="<%= 199 %>" y2="<%= 199 %>"/>
        <line class="mm-line mm-line--orange" stroke-dasharray="12 6" x1="<%= 339 + x1 %>" y1="<%= 1069 + y5 %>"
              x2="<%= 199 %>" y2="<%= 1209 + y6 %>"/>
        <line class="mm-line mm-line--orange" stroke-dasharray="12 6" x1="<%= 1069 + x5 %>" y1="<%= 1069 + y5 %>"
              x2="<%= 1209 + x6 %>" y2="<%= 1209 + y6 %>"/>
        <line class="mm-line mm-line--orange" stroke-dasharray="12 6" x1="<%= 1069 + x5 %>" y1="<%= 339 + y1 %>"
              x2="<%= 1209 + x6 %>" y2="<%= 199 %>"/>
    </g>


    <!--
        Border 3
    -->

    <rect class="mm-border mm-border--bg" x="<%= 199 %>" y="<%= 199 %>" width="<%= 1010 + x6 %>"
          height="<%= 1010 + y6 %>"/>

    <g id="b3" stroke="url(#g3)">
        <rect class="mm-border" x="<%= 199 %>" y="<%= 199 %>" width="<%= 1010 + x6 %>" height="<%= 1010 + y6 %>"/>
        <g mask="url(#m3)">
            <circle class="mm-lg mm-border" r="70" cx="<%= 199 %>" cy="<%= 199 %>"/>
            <circle class="mm-lg mm-border" r="70" cx="<%= 199 %>" cy="<%= 1209 + y6 %>"/>
            <circle class="mm-lg mm-border" r="70" cx="<%= 1209 + x6 %>" cy="<%= 1209 + y6 %>"/>
            <circle class="mm-lg mm-border" r="70" cx="<%= 1209 + x6 %>" cy="<%= 199 %>"/>
        </g>
        <g clip-path="url(#c3)">
            <circle class="mm-sm mm-border" r="70" cx="<%= 199 %>" cy="<%= 199 %>"/>
            <circle class="mm-sm mm-border" r="70" cx="<%= 199 %>" cy="<%= 1209 + y6 %>"/>
            <circle class="mm-sm mm-border" r="70" cx="<%= 1209 + x6 %>" cy="<%= 1209 + y6 %>"/>
            <circle class="mm-sm mm-border" r="70" cx="<%= 1209 + x6 %>" cy="<%= 199 %>"/>
        </g>
    </g>


    <!--
        Border 2
    -->

    <rect class="mm-border mm-border--bg" x="<%= 339 + x1 %>" y="<%= 339 + y1 %>" width="<%= 730 + x4 %>"
          height="<%= 730 + y4 %>"/>

    <g id="b2" stroke="url(#g2)">
        <rect class="mm-border" x="<%= 339 + x1 %>" y="<%= 339 + y1 %>" width="<%= 730 + x4 %>"
              height="<%= 730 + y4 %>"/>
        <g mask="url(#m2)">
            <circle class="mm-lg mm-border" r="80" cx="<%= 339 + x1 %>" cy="<%= 339 + y1 %>"/>
            <circle class="mm-mt mm-border" r="80" cx="<%= 339 + x1 %>" cy="<%= 704 + y3 %>"/>
            <circle class="mm-lg mm-border" r="80" cx="<%= 339 + x1 %>" cy="<%= 1069 + y5 %>"/>
            <circle class="mm-mt mm-border" r="80" cx="<%= 704 + x3 %>" cy="<%= 1069 + y5 %>"/>
            <circle class="mm-lg mm-border" r="80" cx="<%= 1069 + x5 %>" cy="<%= 1069 + y5 %>"/>
            <circle class="mm-mt mm-border" r="80" cx="<%= 1069 + x5 %>" cy="<%= 704 + y3 %>"/>
            <circle class="mm-lg mm-border" r="80" cx="<%= 1069 + x5 %>" cy="<%= 339 + y1 %>"/>
            <circle class="mm-mt mm-border" r="80" cx="<%= 704 + x3 %>" cy="<%= 339 + y1 %>"/>
        </g>
        <g clip-path="url(#c2)">
            <circle class="mm-sm mm-border" r="80" cx="<%= 339 + x1 %>" cy="<%= 339 + y1 %>"/>
            <circle class="mm-mb mm-border" r="80" cx="<%= 339 + x1 %>" cy="<%= 704 + y3 %>"/>
            <circle class="mm-sm mm-border" r="80" cx="<%= 339 + x1 %>" cy="<%= 1069 + y5 %>"/>
            <circle class="mm-mb mm-border" r="80" cx="<%= 704 + x3 %>" cy="<%= 1069 + y5 %>"/>
            <circle class="mm-sm mm-border" r="80" cx="<%= 1069 + x5 %>" cy="<%= 1069 + y5 %>"/>
            <circle class="mm-mb mm-border" r="80" cx="<%= 1069 + x5 %>" cy="<%= 704 + y3 %>"/>
            <circle class="mm-sm mm-border" r="80" cx="<%= 1069 + x5 %>" cy="<%= 339 + y1 %>"/>
            <circle class="mm-mb mm-border" r="80" cx="<%= 704 + x3 %>" cy="<%= 339 + y1 %>"/>
        </g>
    </g>


    <!--
        Border 1
    -->

    <rect class="mm-border mm-border--bg" x="<%= 499 + x2 %>" y="<%= 499 + y2 %>" width="<%= 410 + x2 %>"
          height="<%= 410 + y2 %>"/>

    <g id="b1" stroke="url(#g1)">
        <rect class="mm-border" x="<%= 499 + x2 %>" y="<%= 499 + y2 %>" width="<%= 410 + x2 %>"
              height="<%= 410 + y2 %>"/>
        <g mask="url(#m1)">
            <circle class="mm-lg mm-border" r="90" cx="<%= 499 + x2 %>" cy="<%= 499 + y2 %>"/>
            <circle class="mm-lg mm-border" r="90" cx="<%= 499 + x2 %>" cy="<%= 909 + y4 %>"/>
            <circle class="mm-lg mm-border" r="90" cx="<%= 909 + x4 %>" cy="<%= 909 + y4 %>"/>
            <circle class="mm-lg mm-border" r="90" cx="<%= 909 + x4 %>" cy="<%= 499 + y2 %>"/>
        </g>
        <g clip-path="url(#c1)">
            <circle class="mm-sm mm-border" r="90" cx="<%= 499 + x2 %>" cy="<%= 499 + y2 %>"/>
            <circle class="mm-sm mm-border" r="90" cx="<%= 499 + x2 %>" cy="<%= 909 + y4 %>"/>
            <circle class="mm-sm mm-border" r="90" cx="<%= 909 + x4 %>" cy="<%= 909 + y4 %>"/>
            <circle class="mm-sm mm-border" r="90" cx="<%= 909 + x4 %>" cy="<%= 499 + y2 %>"/>
        </g>
    </g>


    <!--
        Planets 3
    -->

    <g>
        <circle class="mm-planet" r="65" cx="<%= 199 %>" cy="<%= 199 %>"/>
        <circle class="mm-planet" r="65" cx="<%= 199 %>" cy="<%= 1209 + y6 %>"/>
        <circle class="mm-planet" r="65" cx="<%= 1209 + x6 %>" cy="<%= 1209 + y6 %>"/>
        <circle class="mm-planet" r="65" cx="<%= 1209 + x6 %>" cy="<%= 199 %>"/>
    </g>



    <!--
        Orbit 2
    -->

    <!-- Data Feedback -->

    <g transform="translate(<%= 339 - 75 + x1 %> <%= 339 - 75 + y1 %>)">

        <g class="mm-moon">
            <image x="20" y="20" height="110" width="110" href="<%= dir %>/m6.png"/>
            <text y="75">
                <tspan x="75" dy="-10">Parent</tspan>
                <tspan x="75" dy="20">Dashboard</tspan>
            </text>
        </g>

        <g class="mm-moon">
            <image x="20" y="20" height="110" width="110" href="<%= dir %>/m9.png"/>
            <text y="75">
                <tspan x="75" dy="-10">Child</tspan>
                <tspan x="75" dy="20">Dashboard</tspan>
            </text>
        </g>

        <g class="mm-moon">
            <image x="20" y="20" height="110" width="110" href="<%= dir %>/m2.png"/>
            <text y="75">
                <tspan x="75" dy="0">Lexile</tspan>
            </text>
        </g>

        <g class="mm-planet">
            <circle r="75" cx="75" cy="75"/>
            <image x="0" y="0" height="150" width="150" href="<%= dir %>/p9.png"/>
            <text y="75">
                <tspan x="75" dy="-10">Data</tspan>
                <tspan x="75" dy="20">Feedback</tspan>
            </text>
        </g>

    </g>


    <!-- MultiMedia -->

    <g transform="translate(<%= 339 - 75 + x1 %> <%= 704 - 75 + y3 %>)">

        <g class="mm-moon">
            <image x="20" y="20" height="110" width="110" href="<%= dir %>/m6.png"/>
            <text y="75">
                <tspan x="75" dy="0">Video Library</tspan>
            </text>
        </g>

        <g class="mm-moon">
            <image x="20" y="20" height="110" width="110" href="<%= dir %>/m7.png"/>
            <text y="75">
                <tspan x="75" dy="-10">360 Images</tspan>
                <tspan x="75" dy="20">Image Library</tspan>
            </text>
        </g>

        <g class="mm-moon">
            <image x="20" y="20" height="110" width="110" href="<%= dir %>/m8.png"/>
            <text y="75">
                <tspan x="75" dy="-10">Google</tspan>
                <tspan x="75" dy="20">Street View</tspan>
            </text>
        </g>

        <g class="mm-moon">
            <image x="20" y="20" height="110" width="110" href="<%= dir %>/m10.png"/>
            <text y="75">
                <tspan x="75" dy="0">Live Streams</tspan>
            </text>
        </g>

        <g class="mm-moon">
            <image x="20" y="20" height="110" width="110" href="<%= dir %>/m1.png"/>
            <text y="75">
                <tspan x="75" dy="-10">World Book</tspan>
                <tspan x="75" dy="20">Maps</tspan>
            </text>
        </g>

        <g class="mm-moon">
            <image x="20" y="20" height="110" width="110" href="<%= dir %>/m2.png"/>
            <text y="75">
                <tspan x="75" dy="-10">World Book</tspan>
                <tspan x="75" dy="20">Timelines</tspan>
            </text>
        </g>

        <g class="mm-moon">
            <image x="20" y="20" height="110" width="110" href="<%= dir %>/m3.png"/>
            <text y="75">
                <tspan x="75" dy="-10">Ted Talk &</tspan>
                <tspan x="75" dy="20">Ted-Ed Library</tspan>
            </text>
        </g>

        <g class="mm-moon">
            <image x="20" y="20" height="110" width="110" href="<%= dir %>/m4.png"/>
            <text y="75">
                <tspan x="75" dy="-10">Action Clip</tspan>
                <tspan x="75" dy="20">Library</tspan>
            </text>
        </g>

        <g class="mm-planet">
            <circle r="75" cx="75" cy="75"/>
            <image x="0" y="0" height="150" width="150" href="<%= dir %>/p8.png"/>
            <text x="75" y="75">
                <tspan dy="0">Multimedia</tspan>
            </text>
        </g>

    </g>


    <!-- Assessments -->

    <g transform="translate(<%= 339 - 75 + x1 %> <%= 1069 - 75 + y5 %>)">

        <g class="mm-moon">
            <image x="20" y="20" height="110" width="110" href="<%= dir %>/m6.png"/>
            <text y="75">
                <tspan x="75" dy="0">Lexile</tspan>
            </text>
        </g>

        <g class="mm-moon">
            <image x="20" y="20" height="110" width="110" href="<%= dir %>/m8.png"/>
            <text y="75">
                <tspan x="75" dy="-10">Cloze</tspan>
                <tspan x="75" dy="20">Assessment</tspan>
            </text>
        </g>

        <g class="mm-moon">
            <image x="20" y="20" height="110" width="110" href="<%= dir %>/m10.png"/>
            <text y="75">
                <tspan x="75" dy="-20">Multiple</tspan>
                <tspan x="75" dy="20">Choice</tspan>
                <tspan x="75" dy="20">Questions</tspan>
            </text>
        </g>

        <g class="mm-moon">
            <image x="20" y="20" height="110" width="110" href="<%= dir %>/m2.png"/>
            <text y="75">
                <tspan x="75" dy="-20">Short</tspan>
                <tspan x="75" dy="20">Response</tspan>
                <tspan x="75" dy="20">Questions</tspan>
            </text>
        </g>

        <g class="mm-moon">
            <image x="20" y="20" height="110" width="110" href="<%= dir %>/m4.png"/>
            <text y="75">
                <tspan x="75" dy="-10">Power</tspan>
                <tspan x="75" dy="20">Challenge</tspan>
            </text>
        </g>

        <g class="mm-planet">
            <circle r="75" cx="75" cy="75"/>
            <image x="0" y="0" height="150" width="150" href="<%= dir %>/p7.png"/>
            <text x="75" y="75">
                <tspan dy="0">Assessments</tspan>
            </text>
        </g>

    </g>


    <!-- Parental Control -->

    <g transform="translate(<%= 704 - 75 + x3 %> <%= 1069 - 75 + y5 %>)">

        <g class="mm-moon">
            <image x="20" y="20" height="110" width="110" href="<%= dir %>/m6.png"/>
            <text y="75">
                <tspan x="75" dy="-10">Chat</tspan>
                <tspan x="75" dy="20">Control</tspan>
            </text>
        </g>

        <g class="mm-moon">
            <image x="20" y="20" height="110" width="110" href="<%= dir %>/m8.png"/>
            <text y="75">
                <tspan x="75" dy="-10">Feature</tspan>
                <tspan x="75" dy="20">Control</tspan>
            </text>
        </g>

        <g class="mm-moon">
            <image x="20" y="20" height="110" width="110" href="<%= dir %>/m10.png"/>
            <text y="75">
                <tspan x="75" dy="-10">Video</tspan>
                <tspan x="75" dy="20">Control</tspan>
            </text>
        </g>

        <g class="mm-moon">
            <image x="20" y="20" height="110" width="110" href="<%= dir %>/m1.png"/>
            <text y="75">
                <tspan x="75" dy="-10">Audiobooks</tspan>
                <tspan x="75" dy="20">Control</tspan>
            </text>
        </g>

        <g class="mm-moon">
            <image x="20" y="20" height="110" width="110" href="<%= dir %>/m2.png"/>
            <text y="75">
                <tspan x="75" dy="-20">Content</tspan>
                <tspan x="75" dy="20">Appropriateness</tspan>
                <tspan x="75" dy="20">Matrix</tspan>
            </text>
        </g>

        <g class="mm-moon">
            <image x="20" y="20" height="110" width="110" href="<%= dir %>/m3.png"/>
            <text y="75">
                <tspan x="75" dy="-20">Grade</tspan>
                <tspan x="75" dy="20">Appropriate</tspan>
                <tspan x="75" dy="20">Content</tspan>
            </text>
        </g>

        <g class="mm-moon">
            <image x="20" y="20" height="110" width="110" href="<%= dir %>/m5.png"/>
            <text y="75">
                <tspan x="75" dy="-10">Block</tspan>
                <tspan x="75" dy="20">Content</tspan>
            </text>
        </g>

        <g class="mm-planet">
            <circle r="75" cx="75" cy="75"/>
            <image x="0" y="0" height="150" width="150" href="<%= dir %>/p6.png"/>
            <text y="75">
                <tspan x="75" dy="-10">Parental</tspan>
                <tspan x="75" dy="20">Control</tspan>
            </text>
        </g>

    </g>


    <!-- Gamification -->

    <g transform="translate(<%= 1069 - 75 + x5 %> <%= 1069 - 75 + y5 %>)">

        <g class="mm-moon">
            <image x="20" y="20" height="110" width="110" href="<%= dir %>/m2.png"/>
            <text y="75">
                <tspan x="75" dy="0">Running</tspan>
            </text>
        </g>

        <g class="mm-planet">
            <circle r="75" cx="75" cy="75"/>
            <image x="0" y="0" height="150" width="150" href="<%= dir %>/p5.png"/>
            <text x="75" y="75">
                <tspan dy="0">Gamification</tspan>
            </text>
        </g>

    </g>


    <!-- Grading -->

    <g transform="translate(<%= 1069 - 75 + x5 %> <%= 704 - 75 + y3 %>)">

        <g class="mm-moon">
            <image x="20" y="20" height="110" width="110" href="<%= dir %>/m2.png"/>
            <text y="75">
                <tspan x="75" dy="0">Running</tspan>
            </text>
        </g>

        <g class="mm-planet">
            <circle r="75" cx="75" cy="75"/>
            <image x="0" y="0" height="150" width="150" href="<%= dir %>/p12.png"/>
            <text x="75" y="75">
                <tspan dy="0">Grading</tspan>
            </text>
        </g>

    </g>


    <!-- Struggling Reders -->

    <g transform="translate(<%= 1069 - 75 + x5 %> <%= 339 - 75 + y1 %>)">

        <g class="mm-moon">
            <image x="20" y="20" height="110" width="110" href="<%= dir %>/m2.png"/>
            <text y="75">
                <tspan x="75" dy="0">Running</tspan>
            </text>
        </g>

        <g class="mm-planet">
            <circle r="75" cx="75" cy="75"/>
            <image x="0" y="0" height="150" width="150" href="<%= dir %>/p11.png"/>
            <text y="75">
                <tspan x="75" dy="-10">Struggling</tspan>
                <tspan x="75" dy="20">Reders</tspan>
            </text>
        </g>

    </g>


    <!-- Early Learners -->

    <g transform="translate(<%= 704 - 75 + x3 %> <%= 339 - 75 + y1 %>)">

        <g class="mm-moon">
            <image x="20" y="20" height="110" width="110" href="<%= dir %>/m2.png"/>
            <text y="75">
                <tspan x="75" dy="0">Running</tspan>
            </text>
        </g>

        <g class="mm-planet">
            <circle r="75" cx="75" cy="75"/>
            <image x="0" y="0" height="150" width="150" href="<%= dir %>/p10.png"/>
            <text y="75">
                <tspan x="75" dy="-10">Early</tspan>
                <tspan x="75" dy="20">Learners</tspan>
            </text>
        </g>

    </g>



    <!--
        Orbit 1
    -->

    <!-- fluency (499, 499, 85) -->

    <g transform="translate(<%= 499 - 85 + x2 %> <%= 499 - 85 + y2 %>)">

        <g class="mm-moon">
            <image x="30" y="30" height="110" width="110" href="<%= dir %>/m8.png"/>
            <text y="85">
                <tspan x="85" dy="-20">Read-Aloud</tspan>
                <tspan x="85" dy="20">Retelling</tspan>
                <tspan x="85" dy="20">Assignment</tspan>
            </text>
        </g>

        <g class="mm-moon">
            <image x="30" y="30" height="110" width="110" href="<%= dir %>/m6.png"/>
            <text y="85">
                <tspan x="85" dy="-10">Read-Aloud</tspan>
                <tspan x="85" dy="20">in a Book</tspan>
            </text>
        </g>

        <g class="mm-moon">
            <image x="30" y="30" height="110" width="110" href="<%= dir %>/m4.png"/>
            <text y="85">
                <tspan x="85" dy="-30">Speaking</tspan>
                <tspan x="85" dy="20">Listening</tspan>
                <tspan x="85" dy="20">Writing</tspan>
                <tspan x="85" dy="20">Assignment</tspan>
            </text>
        </g>

        <g class="mm-moon">
            <image x="30" y="30" height="110" width="110" href="<%= dir %>/m2.png"/>
            <text y="85">
                <tspan x="85" dy="-10">Running</tspan>
                <tspan x="85" dy="20">Record</tspan>
            </text>
        </g>

        <g class="mm-planet">
            <circle r="85" cx="85" cy="85"/>
            <image x="0" y="0" height="170" width="170" href="<%= dir %>/p3.png"/>
            <image x="85" y="85" height="47" width="47" transform="translate(-23.5, 5)" href="<%= dir %>/video.png"/>
            <text x="85" y="85">
                <tspan dy="-5">Fluency</tspan>
            </text>
        </g>

    </g>


    <!-- Reading (499, 909, 85) -->

    <g transform="translate(<%= 499 - 85 + x2 %> <%= 909 - 85 + y4 %>)" data-moon-margin="48">

        <g class="mm-moon">
            <image x="30" y="30" height="110" width="110" href="<%= dir %>/m7.png"/>
            <text y="85">
                <tspan x="85" dy="0">Book Library</tspan>
            </text>
        </g>

        <g class="mm-moon">
            <image x="30" y="30" height="110" width="110" href="<%= dir %>/m6.png"/>
            <text y="85">
                <tspan x="85" dy="-10">Audiobook</tspan>
                <tspan x="85" dy="20">Library</tspan>
            </text>
        </g>

        <g class="mm-moon">
            <image x="30" y="30" height="110" width="110" href="<%= dir %>/m5.png"/>
            <text y="85">
                <tspan x="85" dy="-10">World Book</tspan>
                <tspan x="85" dy="20">Encyclopedia</tspan>
            </text>
        </g>

        <g class="mm-moon">
            <image x="30" y="30" height="110" width="110" href="<%= dir %>/m4.png"/>
            <text y="85">
                <tspan x="85" dy="-10">Biography</tspan>
                <tspan x="85" dy="20">Center</tspan>
            </text>
        </g>

        <g class="mm-moon">
            <image x="30" y="30" height="110" width="110" href="<%= dir %>/m3.png"/>
            <text y="85">
                <tspan x="85" dy="-30">Lerner</tspan>
                <tspan x="85" dy="20">Digital</tspan>
                <tspan x="85" dy="20">Interactive</tspan>
                <tspan x="85" dy="20">Books</tspan>
            </text>
        </g>

        <g class="mm-moon">
            <image x="30" y="30" height="110" width="110" href="<%= dir %>/m2.png"/>
            <text y="85">
                <tspan x="85" dy="0">Lerner Sports</tspan>
            </text>
        </g>

        <g class="mm-moon">
            <image x="30" y="30" height="110" width="110" href="<%= dir %>/m1.png"/>
            <text y="85">
                <tspan x="85" dy="-10">Library</tspan>
                <tspan x="85" dy="20">Collections</tspan>
            </text>
        </g>

        <g class="mm-moon">
            <image x="30" y="30" height="110" width="110" href="<%= dir %>/m10.png"/>
            <text y="85">
                <tspan x="85" dy="-10">Classics</tspan>
                <tspan x="85" dy="20">Library</tspan>
            </text>
        </g>

        <g class="mm-moon">
            <image x="30" y="30" height="110" width="110" href="<%= dir %>/m8.png"/>
            <text y="85">
                <tspan x="85" dy="0">Homework</tspan>
            </text>
        </g>

        <g class="mm-moon">
            <image x="30" y="30" height="110" width="110" href="<%= dir %>/m8.png"/>
            <text y="85">
                <tspan x="85" dy="0">Buy Books</tspan>
            </text>
        </g>

        <g class="mm-planet">
            <circle r="85" cx="85" cy="85"/>
            <image x="0" y="0" height="170" width="170" href="<%= dir %>/p2.png"/>
            <text x="85" y="85">
                <tspan>Reading</tspan>
            </text>
        </g>

    </g>


    <!-- writing (909, 909, 85) -->

    <g transform="translate(<%= 909 - 85 +  x4 %> <%= 909 - 85 + y4 %>)">

        <g class="mm-moon">
            <image x="30" y="30" height="110" width="110" href="<%= dir %>/m6.png"/>
            <text y="85">
                <tspan x="85" dy="0">My Journal</tspan>
            </text>
        </g>

        <g class="mm-moon">
            <image x="30" y="30" height="110" width="110" href="<%= dir %>/m7.png"/>
            <text y="85">
                <tspan x="85" dy="-10">Authentic</tspan>
                <tspan x="85" dy="20">Writing</tspan>
            </text>
        </g>

        <g class="mm-moon">
            <image x="30" y="30" height="110" width="110" href="<%= dir %>/m8.png"/>
            <text y="85">
                <tspan x="85" dy="0">Essay</tspan>
            </text>
        </g>

        <g class="mm-moon">
            <image x="30" y="30" height="110" width="110" href="<%= dir %>/m10.png"/>
            <text y="85">
                <tspan x="85" dy="-10">Inquiry</tspan>
                <tspan x="85" dy="20">Report</tspan>
            </text>
        </g>

        <g class="mm-moon">
            <image x="30" y="30" height="110" width="110" href="<%= dir %>/m1.png"/>
            <text y="85">
                <tspan x="85" dy="0">Book Report</tspan>
            </text>
        </g>

        <g class="mm-moon">
            <image x="30" y="30" height="110" width="110" href="<%= dir %>/m2.png"/>
            <text y="85">
                <tspan x="85" dy="-10">Writing</tspan>
                <tspan x="85" dy="20">Skills Builder</tspan>
            </text>
        </g>

        <g class="mm-moon">
            <image x="30" y="30" height="110" width="110" href="<%= dir %>/m3.png"/>
            <text y="85">
                <tspan x="85" dy="-10">Informal</tspan>
                <tspan x="85" dy="20">Writing</tspan>
            </text>
        </g>

        <g class="mm-moon">
            <image x="30" y="30" height="110" width="110" href="<%= dir %>/m4.png"/>
            <text y="85">
                <tspan x="85" dy="0">Author a Book</tspan>
            </text>
        </g>

        <g class="mm-planet">
            <circle r="85" cx="85" cy="85"/>
            <image x="0" y="0" height="170" width="170" href="<%= dir %>/p1.png"/>
            <text x="85" y="85">
                <tspan>Writing</tspan>
            </text>
        </g>

    </g>


    <!-- Vocabulary -->

    <g transform="translate(<%= 909 - 85 + x4 %> <%= 499 - 85 + y2 %>)">

        <g class="mm-moon">
            <image x="30" y="30" height="110" width="110" href="<%= dir %>/m6.png"/>
            <text y="85">
                <tspan x="85" dy="0">Clozes</tspan>
            </text>
        </g>

        <g class="mm-moon">
            <image x="30" y="30" height="110" width="110" href="<%= dir %>/m7.png"/>
            <text y="85">
                <tspan x="85" dy="0">Spelling Bee</tspan>
            </text>
        </g>

        <g class="mm-moon">
            <image x="30" y="30" height="110" width="110" href="<%= dir %>/m8.png"/>
            <text y="85">
                <tspan x="85" dy="-10">Vocabulary</tspan>
                <tspan x="85" dy="20">Assessment</tspan>
            </text>
        </g>

        <g class="mm-moon">
            <image x="30" y="30" height="110" width="110" href="<%= dir %>/m10.png"/>
            <text y="85">
                <tspan x="85" dy="0">Word Work</tspan>
            </text>
        </g>

        <g class="mm-moon">
            <image x="30" y="30" height="110" width="110" href="<%= dir %>/m1.png"/>
            <text y="85">
                <tspan x="85" dy="-20">Synonym</tspan>
                <tspan x="85" dy="20">Definition</tspan>
                <tspan x="85" dy="20">Builder</tspan>
            </text>
        </g>

        <g class="mm-moon">
            <image x="30" y="30" height="110" width="110" href="<%= dir %>/m2.png"/>
            <text y="85">
                <tspan x="85" dy="-10">Parts of</tspan>
                <tspan x="85" dy="20">Speech</tspan>
            </text>
        </g>

        <g class="mm-moon">
            <image x="30" y="30" height="110" width="110" href="<%= dir %>/m3.png"/>
            <text y="85">
                <tspan x="85" dy="-10">Parts of</tspan>
                <tspan x="85" dy="20">Speech</tspan>
            </text>
        </g>

        <g class="mm-moon">
            <image x="30" y="30" height="110" width="110" href="<%= dir %>/m4.png"/>
            <text y="85">
                <tspan x="85" dy="0">Word Lists</tspan>
            </text>
        </g>

        <g class="mm-planet">
            <circle r="85" cx="85" cy="85"/>
            <image x="0" y="0" height="170" width="170" href="<%= dir %>/p4.png"/>
            <image x="85" y="85" height="47" width="47" transform="translate(-23.5, 5)" href="<%= dir %>/video.png"/>
            <text x="85" y="85">
                <tspan dy="-5">Vocabulary</tspan>
            </text>
        </g>

    </g>



    <!--
        Sun
    -->

    <circle class="mm-planet" r="120" cx="<%= 704 + x3 %>" cy="<%= 704 + y3 %>"/>



    <!--
        Overlay
    -->

    <rect class="mm-overlay" x="0" y="0" width="<%= w %>" height="<%= h %>"></rect>


</svg>